<svg xmlns="http://www.w3.org/2000/svg" xmlns:xlink="http://www.w3.org/1999/xlink" width="378" zoomAndPan="magnify" viewBox="0 0 283.5 283.500005" height="378" preserveAspectRatio="xMidYMid meet" version="1.0"><defs><g/><clipPath id="cbe83a463b"><path d="M 28.296875 105.679688 L 253.742188 105.679688 L 253.742188 177.285156 L 28.296875 177.285156 Z M 28.296875 105.679688 " clip-rule="nonzero"/></clipPath><clipPath id="5398b1ab1c"><path d="M 220.878906 105.679688 C 238.992188 105.679688 253.671875 121.710938 253.671875 141.484375 C 253.671875 161.257812 238.992188 177.285156 220.878906 177.285156 L 61.089844 177.285156 C 42.976562 177.285156 28.296875 161.257812 28.296875 141.484375 C 28.296875 121.710938 42.976562 105.679688 61.089844 105.679688 Z M 220.878906 105.679688 " clip-rule="nonzero"/></clipPath><clipPath id="a14c080ef6"><path d="M 32.171875 108.78125 L 249.671875 108.78125 L 249.671875 174.363281 L 32.171875 174.363281 Z M 32.171875 108.78125 " clip-rule="nonzero"/></clipPath><clipPath id="83765d4074"><path d="M 216.746094 108.78125 C 234.855469 108.78125 249.539062 123.460938 249.539062 141.570312 C 249.539062 159.683594 234.855469 174.363281 216.746094 174.363281 L 64.964844 174.363281 C 46.855469 174.363281 32.171875 159.683594 32.171875 141.570312 C 32.171875 123.460938 46.855469 108.78125 64.964844 108.78125 Z M 216.746094 108.78125 " clip-rule="nonzero"/></clipPath></defs><g clip-path="url(#cbe83a463b)"><g clip-path="url(#5398b1ab1c)"><path fill="#794721" d="M 28.296875 105.679688 L 253.742188 105.679688 L 253.742188 177.285156 L 28.296875 177.285156 Z M 28.296875 105.679688 " fill-opacity="1" fill-rule="nonzero"/></g></g><g clip-path="url(#a14c080ef6)"><g clip-path="url(#83765d4074)"><path fill="#ffc7c7" d="M 32.171875 108.78125 L 249.417969 108.78125 L 249.417969 174.363281 L 32.171875 174.363281 Z M 32.171875 108.78125 " fill-opacity="1" fill-rule="nonzero"/></g></g><g fill="#794721" fill-opacity="1"><g transform="translate(71.4253, 164.837699)"><g><path d="M 16.46875 -0.140625 C 14.8125 0.347656 13.078125 0.625 11.265625 0.6875 C 9.460938 0.75 7.734375 0.53125 6.078125 0.03125 C 4.421875 -0.46875 2.984375 -1.285156 1.765625 -2.421875 C 1.222656 -2.972656 0.78125 -3.648438 0.4375 -4.453125 C 0.09375 -5.253906 -0.0390625 -6.070312 0.03125 -6.90625 C 0.101562 -7.738281 0.453125 -8.457031 1.078125 -9.0625 C 1.878906 -9.8125 2.632812 -10.257812 3.34375 -10.40625 C 4.0625 -10.5625 4.769531 -10.535156 5.46875 -10.328125 C 6.175781 -10.128906 6.851562 -9.820312 7.5 -9.40625 C 8.269531 -9.101562 9.050781 -8.8125 9.84375 -8.53125 C 10.644531 -8.25 11.382812 -8.175781 12.0625 -8.3125 C 12.75 -8.457031 13.316406 -8.972656 13.765625 -9.859375 C 13.992188 -10.546875 13.953125 -11.097656 13.640625 -11.515625 C 13.328125 -11.929688 12.882812 -12.265625 12.3125 -12.515625 C 11.75 -12.765625 11.15625 -12.960938 10.53125 -13.109375 C 9.914062 -13.265625 9.40625 -13.394531 9 -13.5 C 7.726562 -13.851562 6.503906 -14.164062 5.328125 -14.4375 C 4.160156 -14.71875 3.085938 -15.085938 2.109375 -15.546875 C 1.140625 -16.015625 0.316406 -16.675781 -0.359375 -17.53125 C -1.035156 -18.394531 -1.523438 -19.570312 -1.828125 -21.0625 C -2.191406 -23 -2.019531 -24.75 -1.3125 -26.3125 C -0.601562 -27.875 0.503906 -29.203125 2.015625 -30.296875 C 3.535156 -31.390625 5.320312 -32.164062 7.375 -32.625 C 9.175781 -32.957031 10.941406 -33.066406 12.671875 -32.953125 C 14.398438 -32.835938 15.984375 -32.445312 17.421875 -31.78125 C 18.867188 -31.125 20.101562 -30.109375 21.125 -28.734375 C 21.65625 -28.148438 21.953125 -27.476562 22.015625 -26.71875 C 22.078125 -25.96875 21.929688 -25.265625 21.578125 -24.609375 C 21.234375 -23.960938 20.664062 -23.476562 19.875 -23.15625 C 19.132812 -22.71875 18.351562 -22.519531 17.53125 -22.5625 C 16.71875 -22.613281 15.898438 -22.773438 15.078125 -23.046875 C 14.265625 -23.328125 13.476562 -23.625 12.71875 -23.9375 C 11.957031 -24.257812 11.242188 -24.488281 10.578125 -24.625 C 9.921875 -24.757812 9.347656 -24.71875 8.859375 -24.5 C 8.367188 -24.289062 7.976562 -23.78125 7.6875 -22.96875 C 7.53125 -22.394531 7.632812 -21.929688 8 -21.578125 C 8.375 -21.222656 8.859375 -20.953125 9.453125 -20.765625 C 10.046875 -20.578125 10.648438 -20.421875 11.265625 -20.296875 C 11.878906 -20.179688 12.375 -20.078125 12.75 -19.984375 C 14.132812 -19.734375 15.484375 -19.398438 16.796875 -18.984375 C 18.109375 -18.578125 19.3125 -18.0625 20.40625 -17.4375 C 21.507812 -16.8125 22.4375 -16.035156 23.1875 -15.109375 C 23.9375 -14.191406 24.414062 -13.070312 24.625 -11.75 C 24.976562 -9.726562 24.800781 -7.9375 24.09375 -6.375 C 23.382812 -4.820312 22.347656 -3.523438 20.984375 -2.484375 C 19.628906 -1.441406 18.125 -0.660156 16.46875 -0.140625 Z M 16.46875 -0.140625 "/></g></g></g><g fill="#794721" fill-opacity="1"><g transform="translate(97.780722, 159.503875)"><g><path d="M 17.28125 -0.40625 C 16.3125 -0.164062 15.300781 0.0351562 14.25 0.203125 C 13.207031 0.367188 12.285156 0.378906 11.484375 0.234375 C 10.679688 0.0976562 10.148438 -0.304688 9.890625 -0.984375 C 9.523438 -2.003906 9.238281 -3.203125 9.03125 -4.578125 C 8.832031 -5.953125 8.671875 -7.332031 8.546875 -8.71875 C 8.421875 -10.113281 8.289062 -11.332031 8.15625 -12.375 C 8.03125 -13.476562 7.914062 -14.476562 7.8125 -15.375 C 7.707031 -16.269531 7.625 -17.171875 7.5625 -18.078125 C 7.5 -18.984375 7.457031 -19.96875 7.4375 -21.03125 C 7.425781 -21.320312 7.320312 -21.523438 7.125 -21.640625 C 6.925781 -21.765625 6.679688 -21.816406 6.390625 -21.796875 C 5.484375 -21.703125 4.550781 -21.625 3.59375 -21.5625 C 2.632812 -21.507812 1.75 -21.53125 0.9375 -21.625 C 0.132812 -21.71875 -0.457031 -21.925781 -0.84375 -22.25 C -1.375 -22.65625 -1.695312 -23.300781 -1.8125 -24.1875 C -1.9375 -25.070312 -1.988281 -25.898438 -1.96875 -26.671875 C -1.9375 -27.410156 -1.835938 -28.082031 -1.671875 -28.6875 C -1.503906 -29.300781 -1.003906 -29.75 -0.171875 -30.03125 C 0.628906 -30.257812 1.5625 -30.46875 2.625 -30.65625 C 3.6875 -30.84375 4.785156 -31 5.921875 -31.125 C 7.066406 -31.257812 8.140625 -31.378906 9.140625 -31.484375 C 10.148438 -31.585938 11.003906 -31.671875 11.703125 -31.734375 C 14.328125 -31.992188 16.566406 -32.195312 18.421875 -32.34375 C 20.285156 -32.5 21.78125 -32.492188 22.90625 -32.328125 C 24.03125 -32.160156 24.757812 -31.707031 25.09375 -30.96875 C 25.394531 -30.382812 25.59375 -29.679688 25.6875 -28.859375 C 25.78125 -28.035156 25.722656 -27.242188 25.515625 -26.484375 C 25.304688 -25.734375 24.890625 -25.15625 24.265625 -24.75 C 23.492188 -24.25 22.566406 -23.90625 21.484375 -23.71875 C 20.398438 -23.53125 19.382812 -23.425781 18.4375 -23.40625 C 18.207031 -23.414062 18.019531 -23.332031 17.875 -23.15625 C 17.726562 -22.988281 17.65625 -22.789062 17.65625 -22.5625 C 17.707031 -20.46875 17.816406 -18.460938 17.984375 -16.546875 C 18.160156 -14.640625 18.382812 -12.738281 18.65625 -10.84375 C 18.925781 -8.945312 19.207031 -6.9375 19.5 -4.8125 C 19.65625 -3.8125 19.609375 -2.898438 19.359375 -2.078125 C 19.109375 -1.253906 18.414062 -0.695312 17.28125 -0.40625 Z M 17.28125 -0.40625 "/></g></g></g><g fill="#794721" fill-opacity="1"><g transform="translate(125.449934, 156.696633)"><g><path d="M 4.140625 2.125 C 3.140625 1.8125 2.421875 1.3125 1.984375 0.625 C 1.554688 -0.0507812 1.300781 -0.820312 1.21875 -1.6875 C 1.144531 -2.5625 1.160156 -3.457031 1.265625 -4.375 C 1.378906 -5.289062 1.472656 -6.144531 1.546875 -6.9375 C 1.765625 -8.9375 2.03125 -10.914062 2.34375 -12.875 C 2.664062 -14.832031 3.128906 -16.757812 3.734375 -18.65625 C 4.234375 -20.195312 4.878906 -21.6875 5.671875 -23.125 C 6.472656 -24.570312 7.4375 -25.847656 8.5625 -26.953125 C 9.695312 -28.054688 10.992188 -28.890625 12.453125 -29.453125 C 13.910156 -30.023438 15.554688 -30.1875 17.390625 -29.9375 C 19.234375 -29.695312 20.757812 -29.0625 21.96875 -28.03125 C 23.175781 -27.007812 24.144531 -25.738281 24.875 -24.21875 C 25.601562 -22.707031 26.148438 -21.109375 26.515625 -19.421875 C 26.890625 -17.742188 27.148438 -16.128906 27.296875 -14.578125 C 27.398438 -13.578125 27.507812 -12.492188 27.625 -11.328125 C 27.75 -10.160156 27.863281 -8.984375 27.96875 -7.796875 C 28.070312 -6.617188 28.117188 -5.53125 28.109375 -4.53125 C 28.109375 -3.320312 27.960938 -2.242188 27.671875 -1.296875 C 27.390625 -0.347656 26.722656 0.46875 25.671875 1.15625 C 25.015625 1.507812 24.316406 1.738281 23.578125 1.84375 C 22.835938 1.945312 22.140625 1.90625 21.484375 1.71875 C 20.828125 1.539062 20.300781 1.207031 19.90625 0.71875 C 19.507812 0.226562 19.34375 -0.421875 19.40625 -1.234375 C 19.53125 -2.890625 19.304688 -4.019531 18.734375 -4.625 C 18.160156 -5.226562 17.085938 -5.488281 15.515625 -5.40625 C 14.566406 -5.394531 13.800781 -5.300781 13.21875 -5.125 C 12.632812 -4.957031 12.207031 -4.613281 11.9375 -4.09375 C 11.675781 -3.582031 11.546875 -2.789062 11.546875 -1.71875 C 11.421875 -0.320312 11.007812 0.710938 10.3125 1.390625 C 9.613281 2.078125 8.722656 2.457031 7.640625 2.53125 C 6.566406 2.613281 5.398438 2.476562 4.140625 2.125 Z M 12.234375 -13.109375 C 12.210938 -12.898438 12.265625 -12.71875 12.390625 -12.5625 C 12.523438 -12.40625 12.695312 -12.335938 12.90625 -12.359375 C 13.664062 -12.441406 14.425781 -12.472656 15.1875 -12.453125 C 15.957031 -12.429688 16.707031 -12.421875 17.4375 -12.421875 L 18.828125 -12.421875 C 19.003906 -12.421875 19.148438 -12.476562 19.265625 -12.59375 C 19.390625 -12.71875 19.441406 -12.875 19.421875 -13.0625 C 19.335938 -13.6875 19.265625 -14.425781 19.203125 -15.28125 C 19.140625 -16.132812 19.015625 -16.96875 18.828125 -17.78125 C 18.648438 -18.601562 18.363281 -19.28125 17.96875 -19.8125 C 17.570312 -20.351562 17.035156 -20.625 16.359375 -20.625 C 15.648438 -20.625 15.054688 -20.363281 14.578125 -19.84375 C 14.109375 -19.320312 13.722656 -18.660156 13.421875 -17.859375 C 13.117188 -17.054688 12.878906 -16.226562 12.703125 -15.375 C 12.523438 -14.519531 12.367188 -13.765625 12.234375 -13.109375 Z M 12.234375 -13.109375 "/></g></g></g><g fill="#794721" fill-opacity="1"><g transform="translate(153.64737, 156.740718)"><g><path d="M 19.6875 4.515625 C 19.207031 4.421875 18.613281 4.035156 17.90625 3.359375 C 17.207031 2.679688 16.457031 1.832031 15.65625 0.8125 C 14.851562 -0.195312 14.078125 -1.257812 13.328125 -2.375 C 12.578125 -3.5 11.9375 -4.5625 11.40625 -5.5625 C 11.269531 -3.894531 11.128906 -2.550781 10.984375 -1.53125 C 10.847656 -0.507812 10.554688 0.398438 10.109375 1.203125 C 9.597656 2.117188 8.890625 2.679688 7.984375 2.890625 C 7.078125 3.097656 5.96875 3.09375 4.65625 2.875 C 3.5 2.675781 2.671875 2.332031 2.171875 1.84375 C 1.679688 1.351562 1.425781 0.550781 1.40625 -0.5625 C 1.382812 -1.675781 1.5 -3.222656 1.75 -5.203125 C 2 -7.191406 2.28125 -9.769531 2.59375 -12.9375 C 2.820312 -15.238281 3.003906 -17.160156 3.140625 -18.703125 C 3.285156 -20.242188 3.40625 -21.515625 3.5 -22.515625 C 3.601562 -23.523438 3.726562 -24.359375 3.875 -25.015625 C 4.019531 -25.671875 4.207031 -26.25 4.4375 -26.75 C 4.851562 -27.65625 5.335938 -28.289062 5.890625 -28.65625 C 6.453125 -29.03125 7.113281 -29.242188 7.875 -29.296875 C 8.632812 -29.359375 9.519531 -29.375 10.53125 -29.34375 C 15.082031 -29.257812 18.753906 -28.570312 21.546875 -27.28125 C 24.335938 -25.988281 26.207031 -24.21875 27.15625 -21.96875 C 28.101562 -19.71875 28.0625 -17.101562 27.03125 -14.125 C 26.46875 -12.488281 25.550781 -11.242188 24.28125 -10.390625 C 23.007812 -9.535156 21.613281 -8.910156 20.09375 -8.515625 C 21.019531 -7.359375 21.921875 -6.101562 22.796875 -4.75 C 23.679688 -3.394531 24.492188 -2.097656 25.234375 -0.859375 C 25.742188 -0.0976562 25.863281 0.628906 25.59375 1.328125 C 25.332031 2.023438 24.851562 2.632812 24.15625 3.15625 C 23.457031 3.675781 22.6875 4.0625 21.84375 4.3125 C 21.007812 4.5625 20.289062 4.628906 19.6875 4.515625 Z M 12.25 -16.5 C 12.1875 -15.8125 12.378906 -15.445312 12.828125 -15.40625 C 14.523438 -15.289062 15.976562 -15.265625 17.1875 -15.328125 C 18.40625 -15.398438 19.3125 -15.6875 19.90625 -16.1875 C 20.507812 -16.695312 20.75 -17.539062 20.625 -18.71875 C 20.59375 -19.144531 20.304688 -19.507812 19.765625 -19.8125 C 19.234375 -20.125 18.578125 -20.378906 17.796875 -20.578125 C 17.023438 -20.785156 16.253906 -20.945312 15.484375 -21.0625 C 14.722656 -21.175781 14.078125 -21.257812 13.546875 -21.3125 C 13.109375 -21.351562 12.847656 -21.1875 12.765625 -20.8125 C 12.585938 -20.101562 12.472656 -19.390625 12.421875 -18.671875 C 12.378906 -17.953125 12.320312 -17.226562 12.25 -16.5 Z M 12.25 -16.5 "/></g></g></g><g fill="#794721" fill-opacity="1"><g transform="translate(179.531128, 159.204935)"><g><path d="M 16.65625 4.609375 C 15.664062 4.554688 14.644531 4.457031 13.59375 4.3125 C 12.539062 4.175781 11.648438 3.921875 10.921875 3.546875 C 10.191406 3.179688 9.800781 2.640625 9.75 1.921875 C 9.695312 0.835938 9.769531 -0.390625 9.96875 -1.765625 C 10.175781 -3.140625 10.421875 -4.507812 10.703125 -5.875 C 10.992188 -7.238281 11.226562 -8.441406 11.40625 -9.484375 C 11.59375 -10.566406 11.765625 -11.554688 11.921875 -12.453125 C 12.085938 -13.347656 12.269531 -14.234375 12.46875 -15.109375 C 12.675781 -15.992188 12.921875 -16.941406 13.203125 -17.953125 C 13.273438 -18.242188 13.234375 -18.476562 13.078125 -18.65625 C 12.929688 -18.832031 12.71875 -18.945312 12.4375 -19 C 11.53125 -19.175781 10.613281 -19.375 9.6875 -19.59375 C 8.757812 -19.820312 7.921875 -20.097656 7.171875 -20.421875 C 6.429688 -20.753906 5.914062 -21.128906 5.625 -21.546875 C 5.238281 -22.078125 5.113281 -22.785156 5.25 -23.671875 C 5.394531 -24.566406 5.59375 -25.375 5.84375 -26.09375 C 6.09375 -26.800781 6.378906 -27.421875 6.703125 -27.953125 C 7.035156 -28.484375 7.648438 -28.757812 8.546875 -28.78125 C 9.367188 -28.769531 10.316406 -28.695312 11.390625 -28.5625 C 12.460938 -28.4375 13.5625 -28.273438 14.6875 -28.078125 C 15.820312 -27.878906 16.882812 -27.679688 17.875 -27.484375 C 18.863281 -27.296875 19.707031 -27.132812 20.40625 -27 C 22.988281 -26.476562 25.1875 -26.019531 27 -25.625 C 28.820312 -25.226562 30.25 -24.785156 31.28125 -24.296875 C 32.3125 -23.816406 32.882812 -23.175781 33 -22.375 C 33.113281 -21.738281 33.09375 -21.007812 32.9375 -20.1875 C 32.789062 -19.375 32.507812 -18.632812 32.09375 -17.96875 C 31.675781 -17.300781 31.109375 -16.863281 30.390625 -16.65625 C 29.503906 -16.40625 28.515625 -16.347656 27.421875 -16.484375 C 26.335938 -16.617188 25.34375 -16.816406 24.4375 -17.078125 C 24.207031 -17.148438 24 -17.125 23.8125 -17 C 23.625 -16.875 23.5 -16.695312 23.4375 -16.46875 C 22.875 -14.457031 22.398438 -12.515625 22.015625 -10.640625 C 21.628906 -8.765625 21.285156 -6.878906 20.984375 -4.984375 C 20.691406 -3.085938 20.382812 -1.082031 20.0625 1.03125 C 19.914062 2.050781 19.601562 2.914062 19.125 3.625 C 18.644531 4.332031 17.820312 4.660156 16.65625 4.609375 Z M 16.65625 4.609375 "/></g></g></g><g fill="#f69276" fill-opacity="1"><g transform="translate(68.645188, 153.165337)"><g><path d="M 16.171875 3.078125 C 14.460938 3.234375 12.710938 3.164062 10.921875 2.875 C 9.128906 2.582031 7.472656 2.03125 5.953125 1.21875 C 4.429688 0.40625 3.179688 -0.671875 2.203125 -2.015625 C 1.785156 -2.671875 1.484375 -3.425781 1.296875 -4.28125 C 1.117188 -5.132812 1.144531 -5.960938 1.375 -6.765625 C 1.613281 -7.566406 2.101562 -8.203125 2.84375 -8.671875 C 3.757812 -9.253906 4.582031 -9.550781 5.3125 -9.5625 C 6.050781 -9.570312 6.742188 -9.40625 7.390625 -9.0625 C 8.035156 -8.726562 8.632812 -8.296875 9.1875 -7.765625 C 9.894531 -7.316406 10.609375 -6.875 11.328125 -6.4375 C 12.054688 -6.007812 12.769531 -5.796875 13.46875 -5.796875 C 14.164062 -5.796875 14.816406 -6.191406 15.421875 -6.984375 C 15.785156 -7.609375 15.851562 -8.15625 15.625 -8.625 C 15.40625 -9.101562 15.039062 -9.519531 14.53125 -9.875 C 14.019531 -10.226562 13.472656 -10.535156 12.890625 -10.796875 C 12.316406 -11.066406 11.84375 -11.289062 11.46875 -11.46875 C 10.289062 -12.070312 9.15625 -12.625 8.0625 -13.125 C 6.96875 -13.625 5.988281 -14.195312 5.125 -14.84375 C 4.257812 -15.488281 3.578125 -16.296875 3.078125 -17.265625 C 2.578125 -18.242188 2.328125 -19.492188 2.328125 -21.015625 C 2.347656 -22.984375 2.859375 -24.664062 3.859375 -26.0625 C 4.859375 -27.457031 6.207031 -28.539062 7.90625 -29.3125 C 9.601562 -30.09375 11.503906 -30.507812 13.609375 -30.5625 C 15.441406 -30.53125 17.191406 -30.289062 18.859375 -29.84375 C 20.535156 -29.394531 22.015625 -28.703125 23.296875 -27.765625 C 24.585938 -26.835938 25.601562 -25.597656 26.34375 -24.046875 C 26.738281 -23.367188 26.894531 -22.65625 26.8125 -21.90625 C 26.726562 -21.15625 26.453125 -20.492188 25.984375 -19.921875 C 25.515625 -19.359375 24.859375 -18.988281 24.015625 -18.8125 C 23.203125 -18.539062 22.398438 -18.503906 21.609375 -18.703125 C 20.816406 -18.898438 20.046875 -19.21875 19.296875 -19.65625 C 18.546875 -20.09375 17.828125 -20.539062 17.140625 -21 C 16.460938 -21.457031 15.8125 -21.816406 15.1875 -22.078125 C 14.570312 -22.335938 14.003906 -22.410156 13.484375 -22.296875 C 12.960938 -22.179688 12.476562 -21.753906 12.03125 -21.015625 C 11.757812 -20.492188 11.769531 -20.019531 12.0625 -19.59375 C 12.351562 -19.175781 12.773438 -18.816406 13.328125 -18.515625 C 13.878906 -18.210938 14.441406 -17.941406 15.015625 -17.703125 C 15.597656 -17.460938 16.0625 -17.265625 16.40625 -17.109375 C 17.71875 -16.585938 18.976562 -16 20.1875 -15.34375 C 21.394531 -14.6875 22.476562 -13.941406 23.4375 -13.109375 C 24.394531 -12.285156 25.148438 -11.347656 25.703125 -10.296875 C 26.253906 -9.242188 26.503906 -8.046875 26.453125 -6.703125 C 26.398438 -4.648438 25.875 -2.925781 24.875 -1.53125 C 23.875 -0.144531 22.601562 0.921875 21.0625 1.671875 C 19.53125 2.421875 17.898438 2.890625 16.171875 3.078125 Z M 16.171875 3.078125 "/></g></g></g><g fill="#f69276" fill-opacity="1"><g transform="translate(96.642457, 153.165337)"><g><path d="M 17.234375 1.296875 C 16.253906 1.429688 15.234375 1.53125 14.171875 1.59375 C 13.109375 1.664062 12.179688 1.585938 11.390625 1.359375 C 10.609375 1.140625 10.125 0.6875 9.9375 0 C 9.675781 -1.050781 9.507812 -2.269531 9.4375 -3.65625 C 9.375 -5.050781 9.347656 -6.445312 9.359375 -7.84375 C 9.378906 -9.238281 9.375 -10.460938 9.34375 -11.515625 C 9.320312 -12.617188 9.300781 -13.625 9.28125 -14.53125 C 9.269531 -15.4375 9.273438 -16.34375 9.296875 -17.25 C 9.328125 -18.15625 9.382812 -19.132812 9.46875 -20.1875 C 9.488281 -20.476562 9.40625 -20.695312 9.21875 -20.84375 C 9.039062 -20.988281 8.804688 -21.0625 8.515625 -21.0625 C 7.597656 -21.0625 6.660156 -21.078125 5.703125 -21.109375 C 4.742188 -21.148438 3.867188 -21.253906 3.078125 -21.421875 C 2.285156 -21.597656 1.707031 -21.867188 1.34375 -22.234375 C 0.863281 -22.679688 0.601562 -23.351562 0.5625 -24.25 C 0.53125 -25.144531 0.566406 -25.972656 0.671875 -26.734375 C 0.773438 -27.472656 0.9375 -28.132812 1.15625 -28.71875 C 1.382812 -29.3125 1.929688 -29.703125 2.796875 -29.890625 C 3.609375 -30.046875 4.550781 -30.160156 5.625 -30.234375 C 6.707031 -30.316406 7.820312 -30.367188 8.96875 -30.390625 C 10.113281 -30.421875 11.191406 -30.4375 12.203125 -30.4375 C 13.210938 -30.4375 14.070312 -30.4375 14.78125 -30.4375 C 17.414062 -30.4375 19.664062 -30.414062 21.53125 -30.375 C 23.394531 -30.34375 24.878906 -30.1875 25.984375 -29.90625 C 27.085938 -29.632812 27.769531 -29.113281 28.03125 -28.34375 C 28.269531 -27.738281 28.394531 -27.019531 28.40625 -26.1875 C 28.414062 -25.363281 28.28125 -24.582031 28 -23.84375 C 27.726562 -23.113281 27.253906 -22.578125 26.578125 -22.234375 C 25.765625 -21.816406 24.8125 -21.566406 23.71875 -21.484375 C 22.625 -21.410156 21.601562 -21.410156 20.65625 -21.484375 C 20.425781 -21.515625 20.226562 -21.453125 20.0625 -21.296875 C 19.90625 -21.140625 19.816406 -20.941406 19.796875 -20.703125 C 19.640625 -18.617188 19.550781 -16.617188 19.53125 -14.703125 C 19.519531 -12.785156 19.550781 -10.867188 19.625 -8.953125 C 19.707031 -7.035156 19.789062 -5.007812 19.875 -2.875 C 19.925781 -1.851562 19.785156 -0.945312 19.453125 -0.15625 C 19.128906 0.632812 18.390625 1.117188 17.234375 1.296875 Z M 17.234375 1.296875 "/></g></g></g><g fill="#f69276" fill-opacity="1"><g transform="translate(125.586113, 153.165337)"><g><path d="M 4.140625 2.125 C 3.140625 1.8125 2.421875 1.3125 1.984375 0.625 C 1.554688 -0.0507812 1.300781 -0.820312 1.21875 -1.6875 C 1.144531 -2.5625 1.160156 -3.457031 1.265625 -4.375 C 1.367188 -5.289062 1.457031 -6.144531 1.53125 -6.9375 C 1.75 -8.9375 2.015625 -10.914062 2.328125 -12.875 C 2.640625 -14.832031 3.097656 -16.757812 3.703125 -18.65625 C 4.203125 -20.195312 4.847656 -21.691406 5.640625 -23.140625 C 6.429688 -24.585938 7.390625 -25.863281 8.515625 -26.96875 C 9.648438 -28.070312 10.945312 -28.90625 12.40625 -29.46875 C 13.863281 -30.039062 15.507812 -30.207031 17.34375 -29.96875 C 19.1875 -29.726562 20.710938 -29.09375 21.921875 -28.0625 C 23.128906 -27.039062 24.097656 -25.773438 24.828125 -24.265625 C 25.566406 -22.753906 26.117188 -21.15625 26.484375 -19.46875 C 26.859375 -17.789062 27.125 -16.175781 27.28125 -14.625 C 27.382812 -13.625 27.492188 -12.539062 27.609375 -11.375 C 27.734375 -10.207031 27.847656 -9.03125 27.953125 -7.84375 C 28.054688 -6.664062 28.109375 -5.578125 28.109375 -4.578125 C 28.109375 -3.367188 27.960938 -2.289062 27.671875 -1.34375 C 27.390625 -0.394531 26.722656 0.421875 25.671875 1.109375 C 25.015625 1.472656 24.316406 1.707031 23.578125 1.8125 C 22.835938 1.914062 22.140625 1.875 21.484375 1.6875 C 20.828125 1.507812 20.300781 1.175781 19.90625 0.6875 C 19.507812 0.195312 19.34375 -0.453125 19.40625 -1.265625 C 19.53125 -2.921875 19.300781 -4.050781 18.71875 -4.65625 C 18.144531 -5.257812 17.070312 -5.519531 15.5 -5.4375 C 14.550781 -5.414062 13.785156 -5.316406 13.203125 -5.140625 C 12.628906 -4.972656 12.207031 -4.628906 11.9375 -4.109375 C 11.675781 -3.597656 11.546875 -2.804688 11.546875 -1.734375 C 11.421875 -0.335938 11.007812 0.695312 10.3125 1.375 C 9.613281 2.0625 8.722656 2.441406 7.640625 2.515625 C 6.566406 2.597656 5.398438 2.46875 4.140625 2.125 Z M 12.21875 -13.125 C 12.195312 -12.914062 12.25 -12.734375 12.375 -12.578125 C 12.507812 -12.421875 12.679688 -12.351562 12.890625 -12.375 C 13.648438 -12.457031 14.410156 -12.488281 15.171875 -12.46875 C 15.941406 -12.457031 16.691406 -12.453125 17.421875 -12.453125 L 18.8125 -12.453125 C 18.988281 -12.453125 19.132812 -12.507812 19.25 -12.625 C 19.375 -12.75 19.425781 -12.90625 19.40625 -13.09375 C 19.320312 -13.71875 19.242188 -14.457031 19.171875 -15.3125 C 19.109375 -16.164062 18.984375 -17 18.796875 -17.8125 C 18.617188 -18.632812 18.332031 -19.3125 17.9375 -19.84375 C 17.539062 -20.382812 17.003906 -20.65625 16.328125 -20.65625 C 15.617188 -20.65625 15.023438 -20.390625 14.546875 -19.859375 C 14.078125 -19.335938 13.691406 -18.675781 13.390625 -17.875 C 13.085938 -17.070312 12.847656 -16.242188 12.671875 -15.390625 C 12.503906 -14.535156 12.351562 -13.78125 12.21875 -13.125 Z M 12.21875 -13.125 "/></g></g></g><g fill="#f69276" fill-opacity="1"><g transform="translate(154.884663, 153.165337)"><g><path d="M 20.03125 2.5625 C 19.550781 2.507812 18.925781 2.179688 18.15625 1.578125 C 17.382812 0.972656 16.550781 0.207031 15.65625 -0.71875 C 14.757812 -1.65625 13.882812 -2.644531 13.03125 -3.6875 C 12.175781 -4.726562 11.429688 -5.71875 10.796875 -6.65625 C 10.828125 -4.976562 10.820312 -3.625 10.78125 -2.59375 C 10.738281 -1.570312 10.535156 -0.640625 10.171875 0.203125 C 9.753906 1.171875 9.101562 1.800781 8.21875 2.09375 C 7.34375 2.382812 6.242188 2.488281 4.921875 2.40625 C 3.742188 2.320312 2.882812 2.054688 2.34375 1.609375 C 1.800781 1.171875 1.460938 0.398438 1.328125 -0.703125 C 1.203125 -1.804688 1.164062 -3.359375 1.21875 -5.359375 C 1.269531 -7.359375 1.296875 -9.945312 1.296875 -13.125 C 1.296875 -15.4375 1.289062 -17.367188 1.28125 -18.921875 C 1.269531 -20.472656 1.265625 -21.753906 1.265625 -22.765625 C 1.265625 -23.773438 1.300781 -24.609375 1.375 -25.265625 C 1.457031 -25.929688 1.59375 -26.523438 1.78125 -27.046875 C 2.113281 -27.992188 2.535156 -28.675781 3.046875 -29.09375 C 3.566406 -29.519531 4.203125 -29.796875 4.953125 -29.921875 C 5.703125 -30.054688 6.578125 -30.160156 7.578125 -30.234375 C 12.117188 -30.609375 15.84375 -30.289062 18.75 -29.28125 C 21.65625 -28.269531 23.691406 -26.691406 24.859375 -24.546875 C 26.023438 -22.398438 26.242188 -19.789062 25.515625 -16.71875 C 25.117188 -15.03125 24.328125 -13.703125 23.140625 -12.734375 C 21.960938 -11.765625 20.632812 -11.003906 19.15625 -10.453125 C 20.1875 -9.398438 21.207031 -8.242188 22.21875 -6.984375 C 23.226562 -5.722656 24.164062 -4.507812 25.03125 -3.34375 C 25.613281 -2.632812 25.804688 -1.921875 25.609375 -1.203125 C 25.410156 -0.484375 24.988281 0.171875 24.34375 0.765625 C 23.695312 1.359375 22.972656 1.816406 22.171875 2.140625 C 21.367188 2.472656 20.65625 2.613281 20.03125 2.5625 Z M 10.5625 -17.625 C 10.5625 -16.9375 10.785156 -16.59375 11.234375 -16.59375 C 12.941406 -16.644531 14.394531 -16.765625 15.59375 -16.953125 C 16.789062 -17.140625 17.664062 -17.515625 18.21875 -18.078125 C 18.769531 -18.640625 18.925781 -19.5 18.6875 -20.65625 C 18.613281 -21.082031 18.289062 -21.421875 17.71875 -21.671875 C 17.15625 -21.921875 16.476562 -22.109375 15.6875 -22.234375 C 14.90625 -22.367188 14.125 -22.453125 13.34375 -22.484375 C 12.570312 -22.523438 11.921875 -22.546875 11.390625 -22.546875 C 10.941406 -22.546875 10.691406 -22.351562 10.640625 -21.96875 C 10.535156 -21.25 10.492188 -20.53125 10.515625 -19.8125 C 10.546875 -19.09375 10.5625 -18.363281 10.5625 -17.625 Z M 10.5625 -17.625 "/></g></g></g><g fill="#f69276" fill-opacity="1"><g transform="translate(181.974978, 153.165337)"><g><path d="M 17.234375 1.296875 C 16.253906 1.429688 15.234375 1.53125 14.171875 1.59375 C 13.109375 1.664062 12.179688 1.585938 11.390625 1.359375 C 10.609375 1.140625 10.125 0.6875 9.9375 0 C 9.675781 -1.050781 9.507812 -2.269531 9.4375 -3.65625 C 9.375 -5.050781 9.347656 -6.445312 9.359375 -7.84375 C 9.378906 -9.238281 9.375 -10.460938 9.34375 -11.515625 C 9.320312 -12.617188 9.300781 -13.625 9.28125 -14.53125 C 9.269531 -15.4375 9.273438 -16.34375 9.296875 -17.25 C 9.328125 -18.15625 9.382812 -19.132812 9.46875 -20.1875 C 9.488281 -20.476562 9.40625 -20.695312 9.21875 -20.84375 C 9.039062 -20.988281 8.804688 -21.0625 8.515625 -21.0625 C 7.597656 -21.0625 6.660156 -21.078125 5.703125 -21.109375 C 4.742188 -21.148438 3.867188 -21.253906 3.078125 -21.421875 C 2.285156 -21.597656 1.707031 -21.867188 1.34375 -22.234375 C 0.863281 -22.679688 0.601562 -23.351562 0.5625 -24.25 C 0.53125 -25.144531 0.566406 -25.972656 0.671875 -26.734375 C 0.773438 -27.472656 0.9375 -28.132812 1.15625 -28.71875 C 1.382812 -29.3125 1.929688 -29.703125 2.796875 -29.890625 C 3.609375 -30.046875 4.550781 -30.160156 5.625 -30.234375 C 6.707031 -30.316406 7.820312 -30.367188 8.96875 -30.390625 C 10.113281 -30.421875 11.191406 -30.4375 12.203125 -30.4375 C 13.210938 -30.4375 14.070312 -30.4375 14.78125 -30.4375 C 17.414062 -30.4375 19.664062 -30.414062 21.53125 -30.375 C 23.394531 -30.34375 24.878906 -30.1875 25.984375 -29.90625 C 27.085938 -29.632812 27.769531 -29.113281 28.03125 -28.34375 C 28.269531 -27.738281 28.394531 -27.019531 28.40625 -26.1875 C 28.414062 -25.363281 28.28125 -24.582031 28 -23.84375 C 27.726562 -23.113281 27.253906 -22.578125 26.578125 -22.234375 C 25.765625 -21.816406 24.8125 -21.566406 23.71875 -21.484375 C 22.625 -21.410156 21.601562 -21.410156 20.65625 -21.484375 C 20.425781 -21.515625 20.226562 -21.453125 20.0625 -21.296875 C 19.90625 -21.140625 19.816406 -20.941406 19.796875 -20.703125 C 19.640625 -18.617188 19.550781 -16.617188 19.53125 -14.703125 C 19.519531 -12.785156 19.550781 -10.867188 19.625 -8.953125 C 19.707031 -7.035156 19.789062 -5.007812 19.875 -2.875 C 19.925781 -1.851562 19.785156 -0.945312 19.453125 -0.15625 C 19.128906 0.632812 18.390625 1.117188 17.234375 1.296875 Z M 17.234375 1.296875 "/></g></g></g></svg>